<?xml version="1.0" standalone="no"?>
<!DOCTYPE svg PUBLIC "-//W3C//DTD SVG 1.1//EN" "http://www.w3.org/Graphics/SVG/1.1/DTD/svg11.dtd" >
<svg>
<metadata>
Created by FontForge 20090914 at Mon May 27 13:47:44 2013
 By www-data
Copyright (c) 2012 by Alexander Alexandrov. All rights reserved.
</metadata>
<defs>
<font id="CreditBlock" horiz-adv-x="160" >
  <font-face 
    font-family="Credit Block"
    font-weight="400"
    font-stretch="ultra-condensed"
    units-per-em="1000"
    panose-1="2 0 0 0 0 0 0 0 0 0"
    ascent="750"
    descent="-250"
    x-height="773"
    cap-height="773"
    bbox="-1 -60 251.999 810"
    underline-thickness="50"
    underline-position="-50"
    unicode-range="U+0020-U+20AC"
  />
<missing-glyph horiz-adv-x="500" 
 />
    <glyph glyph-name=".notdef" horiz-adv-x="500" 
 />
    <glyph glyph-name="space" unicode=" " horiz-adv-x="162" 
 />
    <glyph glyph-name="space" unicode="&#xa0;" horiz-adv-x="162" 
 />
    <glyph glyph-name="exclam" unicode="!" horiz-adv-x="72" 
d="M49 131h-26l-3 642h32zM58 19c0 -9.33301 -2.16699 -15.166 -6.5 -17.499s-9.5 -3.5 -15.5 -3.5c-5.33301 0 -10.166 1.16699 -14.499 3.5s-6.5 8.16602 -6.5 17.499c0 8 2.16699 13.667 6.5 17s9.16602 5 14.499 5c6 0 11.167 -1.66699 15.5 -5s6.5 -9 6.5 -17z" />
    <glyph glyph-name="quotedbl" unicode="&#x22;" horiz-adv-x="103" 
d="M7 653l16 120h22l-7 -120h-31zM57 653l16 120h22l-7 -120h-31z" />
    <glyph glyph-name="numbersign" unicode="#" horiz-adv-x="191" 
d="M188 481h-50l-7 -139h50l-2 -25h-49l-16 -317h-26l16 317h-40l-16 -317h-26l16 317h-39l2 25h38l7 139h-38l1 25h38l14 267h26l-14 -267h40l14 267h26l-14 -267h50zM105 342l7 139h-40l-7 -139h40z" />
    <glyph glyph-name="dollar" unicode="$" 
d="M109 682c0 5.33301 -0.999023 10.001 -2.99902 14.001c-1.33301 3.33301 -4 6.5 -8 9.5s-9.66699 4.5 -17 4.5c-10.667 0 -18 -2.83301 -22 -8.5s-6 -12.167 -6 -19.5v-180c0 -14.667 4.5 -31.334 13.5 -50.001s18.833 -37.667 29.5 -57
c11.333 -20 21.333 -39.333 30 -58s13 -36 13 -52v-178c0 -20 -3.83301 -34.667 -11.5 -44s-18.167 -15 -31.5 -17v-46h-30v46c-14.667 1.33301 -25.834 6.16602 -33.501 14.499s-11.5 23.833 -11.5 46.5v178h30v-189c0 -7.33301 2.16699 -13.333 6.5 -18s11.5 -7 21.5 -7
s17.167 2.33301 21.5 7s6.5 10.667 6.5 18v189c0 12 -4.16699 26.5 -12.5 43.5l-26.5 51.5c-11.333 20.667 -22 41.334 -32 62.001s-15 40.667 -15 60v173c0 19.333 4 33.666 12 42.999s19 15 33 17v38h30v-38c13.333 -1.33301 23.833 -6.16602 31.5 -14.499
s11.5 -23.5 11.5 -45.5v-172h-30v179z" />
    <glyph glyph-name="percent" unicode="%" horiz-adv-x="239" 
d="M75 0h-23l113 773h23zM76 733c0 3.33301 -0.666992 7.83301 -2 13.5s-7 8.5 -17 8.5c-8.66699 0 -14 -2.33301 -16 -7s-3 -9.66699 -3 -15v-309c0 -5.33301 1.33301 -10 4 -14s7.66699 -6 15 -6s12.333 2 15 6s4 8.66699 4 14v309zM57 776
c14.667 0 25.8301 -3.5 33.4971 -10.5s11.5 -19.833 11.5 -38.5v-294c0 -19.333 -3.66699 -32.5 -11 -39.5s-18.666 -10.5 -33.999 -10.5s-26.666 3.5 -33.999 10.5s-11 20.167 -11 39.5v294c0 18.667 3.83301 31.5 11.5 38.5s18.834 10.5 33.501 10.5zM200.996 346
c0 3.33301 -0.666992 7.83301 -2 13.5s-7 8.5 -17 8.5c-8.66699 0 -14 -2.33301 -16 -7s-3 -9.66699 -3 -15v-309c0 -5.33301 1.33301 -10 4 -14s7.66699 -6 15 -6s12.333 2 15 6s4 8.66699 4 14v309zM181.996 389c14.667 0 25.8301 -3.5 33.4971 -10.5
s11.5 -19.833 11.5 -38.5v-294c0 -19.333 -3.66699 -32.5 -11 -39.5s-18.666 -10.5 -33.999 -10.5s-26.666 3.5 -33.999 10.5s-11 20.167 -11 39.5v294c0 18.667 3.83301 31.5 11.5 38.5s18.834 10.5 33.501 10.5z" />
    <glyph glyph-name="ampersand" unicode="&#x26;" horiz-adv-x="173" 
d="M168 382l-26.9971 0.000976562v-322c0 -24 -5.33301 -40.333 -16 -49s-25.334 -13 -44.001 -13s-33.334 4.33301 -44.001 13s-16 25 -16 49v290c0 12 2.5 21.667 7.5 29s11.5 12.666 19.5 15.999c-7.33301 4 -13.666 9.83301 -18.999 17.5s-8 17.167 -8 28.5v275
c0 23.333 5.5 39.333 16.5 48s25.5 13 43.5 13s32.5 -4.33301 43.5 -13s16.5 -24.667 16.5 -48v-189h-33v196c0 7.33301 -1.83301 13.833 -5.5 19.5s-10.834 8.5 -21.501 8.5c-7.33301 0 -13 -1.5 -17 -4.5s-6.66699 -6.16699 -8 -9.5c-2 -4 -2.66699 -8.66699 -2 -14v-289
c0 -8 2.66699 -14 8 -18s10.666 -6 15.999 -6h90v-28zM109.003 382.001h-32c-6.66699 0 -12.167 -2.5 -16.5 -7.5s-6.5 -11.167 -6.5 -18.5v-307c0 -7.33301 2 -13.333 6 -18s11 -7 21 -7s17 2.33301 21 7s6 10.667 6 18v300z" />
    <glyph glyph-name="quotesingle" unicode="'" horiz-adv-x="57" 
d="M8 653l16 120h22l-7 -120h-31v0z" />
    <glyph glyph-name="parenleft" unicode="(" horiz-adv-x="86" 
d="M78 -35h-2c-18.667 0 -33 4.33301 -43 13s-15 25 -15 49v722c0 23.333 5.16699 39.333 15.5 48s24.5 13 42.5 13h2v-20h-2c-12.667 0 -20.5 -2.83301 -23.5 -8.5s-4.5 -12.167 -4.5 -19.5v-752c0 -7.33301 1.66699 -13.333 5 -18s11 -7 23 -7h2v-20z" />
    <glyph glyph-name="parenright" unicode=")" horiz-adv-x="90" 
d="M5 -15h2c12 0 19.667 2.33301 23 7s5 10.667 5 18v752c0 7.33301 -1.5 13.833 -4.5 19.5s-10.833 8.5 -23.5 8.5h-2v20h2c18 0 32.167 -4.33301 42.5 -13s15.5 -24.667 15.5 -48v-722c0 -24 -5 -40.333 -15 -49s-24.333 -13 -43 -13h-2v20z" />
    <glyph glyph-name="asterisk" unicode="*" horiz-adv-x="129" 
d="M124 731l-39 -20l39 -20l-11 -19l-39 22l1 -45h-22v45l-39 -22l-10 19l38 20l-38 20l10 19l39 -22v45h22l-1 -45l39 22l11 -19v0z" />
    <glyph glyph-name="plus" unicode="+" horiz-adv-x="206" 
d="M192 407v-28h-75v-98h-28v98h-75v28h75v98h28v-98h75v0z" />
    <glyph glyph-name="comma" unicode="," horiz-adv-x="61" 
d="M50 49l-20 -109h-22l8 109h34v0z" />
    <glyph glyph-name="hyphen" unicode="-" horiz-adv-x="176" 
d="M155 376h-138v28h138v-28v0v0z" />
    <glyph glyph-name="period" unicode="." horiz-adv-x="112" 
d="M78 21c0 -9.33301 -2 -15.666 -6 -18.999s-9.66699 -5 -17 -5c-6.66699 0 -12 1.66699 -16 5s-6 9.66602 -6 18.999c0 15.333 7.33301 23 22 23c15.333 0 23 -7.66699 23 -23z" />
    <glyph glyph-name="slash" unicode="/" horiz-adv-x="110" 
d="M38 0h-26l59 773h26l-59 -773v0v0z" />
    <glyph glyph-name="zero" unicode="0" horiz-adv-x="167" 
d="M110 723c0.666992 5.33301 0.000976562 10 -1.99902 14c-1.33301 3.33301 -4 6.5 -8 9.5s-9.66699 4.5 -17 4.5c-10.667 0 -17.834 -2.83301 -21.501 -8.5s-5.5 -12.167 -5.5 -19.5v-674c0 -7.33301 2 -13.333 6 -18s11 -7 21 -7s17 2.33301 21 7s6 10.667 6 18v674z
M83.001 777c18 0 32.502 -4.33301 43.502 -13s16.5 -24.667 16.5 -48v-656c0 -24 -5.33301 -40.333 -16 -49s-25.334 -13 -44.001 -13s-33.334 4.33301 -44.001 13s-16 25 -16 49v656c0 23.333 5.5 39.333 16.5 48s25.5 13 43.5 13z" />
    <glyph glyph-name="one" unicode="1" horiz-adv-x="101" 
d="M8 773h67v-773h-32v745h-35v28v0z" />
    <glyph glyph-name="two" unicode="2" horiz-adv-x="156" 
d="M98 370c-10.667 -19.333 -20.501 -38.165 -29.501 -56.498s-13.5 -34.833 -13.5 -49.5v-235h85v-29h-85h-20h-12v264c0 19.333 5 39.166 15 59.499l32 62.5l26.5 51.5c8.33301 17 12.5 31.5 12.5 43.5v244c0 7.33301 -2.16699 13.5 -6.5 18.5s-11.5 7.5 -21.5 7.5
s-17.167 -2.5 -21.5 -7.5s-6.5 -11.167 -6.5 -18.5v-245h-30v235c0 25.333 5 42 15 50s24.333 12 43 12s33.334 -4.33301 44.001 -13s16 -25 16 -49v-234c0 -16 -4.33301 -33.333 -13 -52s-18.667 -38.334 -30 -59.001z" />
    <glyph glyph-name="three" unicode="3" 
d="M79 777c18 0 32.5029 -4.33398 43.5029 -13.001s16.5 -24.667 16.5 -48v-275c0 -11.333 -2.66699 -20.833 -8 -28.5s-11.666 -13.5 -18.999 -17.5c8 -3.33301 14.5 -8.66602 19.5 -15.999s7.5 -17 7.5 -29v-290c0 -24 -5.33301 -40.333 -16 -49s-25.334 -13 -44.001 -13
s-33.334 4.33301 -44.001 13s-16 25 -16 49v200h33v-211c0 -7.33301 2 -13.333 6 -18s11 -7 21 -7s17 2.33301 21 7s6 10.667 6 18v307c0 7.33301 -2.16699 13.5 -6.5 18.5s-9.83301 7.5 -16.5 7.5h-61v28h60c5.33301 0 10.666 2 15.999 6s8 10 8 18v289
c0.666992 5.33301 0 10 -2 14c-1.33301 3.33301 -4 6.5 -8 9.5s-9.66699 4.5 -17 4.5c-10.667 0 -17.834 -2.83301 -21.501 -8.5s-5.5 -12.167 -5.5 -19.5v-196h-33v189c0 23.333 5.5 39.333 16.5 48s25.5 13 43.5 13z" />
    <glyph glyph-name="four" unicode="4" 
d="M152 225l-22.998 0.000976562v-225h-32v225h-90h-1c1.33301 53.333 6.16602 105 14.499 155s18.5 102 30.5 156l23.5 108.5c8.33301 38.333 16.166 81.166 23.499 128.499h31v-517h23v-31zM97.002 256.001v273l4 97v1c-3.33301 -16.667 -6.5 -33.667 -9.5 -51
s-6.16699 -33 -9.5 -47c-11.333 -50 -20.833 -96.5 -28.5 -139.5s-12.5 -87.833 -14.5 -134.5z" />
    <glyph glyph-name="five" unicode="5" 
d="M82 417c18 0 32.502 -4.33301 43.502 -13s16.5 -24.667 16.5 -48v-296c0 -24 -5.33301 -40.333 -16 -49s-25.334 -13 -44.001 -13s-33.334 4.33301 -44.001 13s-16 25 -16 49v224h33v-235c0 -7.33301 2 -13.333 6 -18s11 -7 21 -7s17 2.33301 21 7s6 10.667 6 18v314
c0.666992 5.33301 0 10 -2 14c-1.33301 3.33301 -4 6.5 -8 9.5s-9.66699 4.5 -17 4.5h-59v382h109v-30h-77v-326h27v0z" />
    <glyph glyph-name="six" unicode="6" 
d="M107 723c0.666992 5.33301 0.00292969 10 -1.99707 14c-1.33301 3.33301 -4 6.5 -8 9.5s-9.66699 4.5 -17 4.5c-10.667 0 -17.834 -2.83301 -21.501 -8.5s-5.5 -12.167 -5.5 -19.5v-247l-1 -63c8.66699 5.33301 18 8 28 8c18 0 32.5 -4.33301 43.5 -13
s16.5 -24.667 16.5 -48v-300c0 -24 -5.33301 -40.333 -16 -49s-25.334 -13 -44.001 -13s-33.334 4.33301 -44.001 13s-16 25 -16 49v656c0 23.333 5.5 39.333 16.5 48s25.5 13 43.5 13s32.5 -4.33301 43.5 -13s16.5 -24.667 16.5 -48v-195h-33v202zM53.0029 49
c0 -7.33301 2.00098 -13.333 6.00098 -18s11 -7 21 -7s17 2.33301 21 7s6 10.667 6 18v318c0.666992 5.33301 0 10 -2 14c-1.33301 3.33301 -4 6.5 -8 9.5s-9.66699 4.5 -17 4.5c-10.667 0 -17.834 -2.83301 -21.501 -8.5s-5.5 -12.167 -5.5 -19.5v-318z" />
    <glyph glyph-name="seven" unicode="7" horiz-adv-x="129" 
d="M122 773c-2 -36 -5.5 -74.334 -10.5 -115.001l-16.5 -130c-9.33301 -68.667 -19.166 -145.834 -29.499 -231.501s-18.833 -184.5 -25.5 -296.5h-32c6.66699 112.667 15.167 212.334 25.5 299.001s20.166 164.334 29.499 233.001l14.5 111.5
c4.33301 34.333 7.83301 67.5 10.5 99.5h-81v30h115z" />
    <glyph glyph-name="eight" unicode="8" horiz-adv-x="171" 
d="M144 455c0 -15.333 -2.16504 -26.833 -6.49805 -34.5s-10.5 -13.167 -18.5 -16.5c8 -3.33301 14.167 -8.83301 18.5 -16.5s6.5 -18.834 6.5 -33.501v-294c0 -24 -5.33301 -40.333 -16 -49s-25.334 -13 -44.001 -13s-33.334 4.33301 -44.001 13s-16 25 -16 49v294
c0 14.667 2.16699 25.834 6.5 33.501s10.5 13.167 18.5 16.5c-8 3.33301 -14.167 8.83301 -18.5 16.5s-6.5 19.167 -6.5 34.5v261c0 23.333 5.5 39.333 16.5 48s25.5 13 43.5 13s32.5 -4.33301 43.5 -13s16.5 -24.667 16.5 -48v-261zM57.002 444
c0 -7.33301 2.00098 -13.333 6.00098 -18s11 -7 21 -7s17 2.33301 21 7s6 10.667 6 18v279c0.666992 5.33301 0 10 -2 14c-1.33301 3.33301 -4 6.5 -8 9.5s-9.66699 4.5 -17 4.5c-10.667 0 -17.834 -2.83301 -21.501 -8.5s-5.5 -12.167 -5.5 -19.5v-279zM111.003 361
c0.666992 5.33301 0.000976562 10 -1.99902 14c-1.33301 3.33301 -4 6.5 -8 9.5s-9.66699 4.5 -17 4.5c-10.667 0 -17.834 -2.83301 -21.501 -8.5s-5.5 -12.167 -5.5 -19.5v-312c0 -7.33301 2 -13.333 6 -18s11 -7 21 -7s17 2.33301 21 7s6 10.667 6 18v312z" />
    <glyph glyph-name="nine" unicode="9" horiz-adv-x="165" 
d="M53 51c-0.666992 -5.33301 -0.00292969 -9.99902 1.99707 -13.999c1.33301 -3.33301 4 -6.33301 8 -9s9.66699 -4 17 -4c10.667 0 17.834 2.66699 21.501 8s5.5 11.666 5.5 18.999v248l1 70c-8.66699 -5.33301 -18 -8 -28 -8c-18 0 -32.5 4.33301 -43.5 13
s-16.5 24.667 -16.5 48v293c0 24 5.33301 40.333 16 49s25.334 13 44.001 13s33.334 -4 44.001 -12s16 -22.333 16 -43v-656c0 -26.667 -5.5 -44.667 -16.5 -54s-25.5 -14 -43.5 -14s-32.5 4.33301 -43.5 13s-16.5 24.667 -16.5 48v206h33v-214zM106.997 725.001
c0 7.33301 -2.00098 13.501 -6.00098 18.501s-11 7.5 -21 7.5s-17 -2.5 -21 -7.5s-6 -11.167 -6 -18.5v-311c-0.666992 -5.33301 0 -10 2 -14c1.33301 -3.33301 4 -6.33301 8 -9s9.66699 -4 17 -4c10.667 0 17.834 2.66699 21.501 8s5.5 11.666 5.5 18.999v311z" />
    <glyph glyph-name="colon" unicode=":" horiz-adv-x="88" 
d="M65 239c0 -9.33301 -2.16699 -15.5 -6.5 -18.5s-9.5 -4.5 -15.5 -4.5c-5.33301 0 -10.166 1.5 -14.499 4.5s-6.5 9.16699 -6.5 18.5c0 8 2.16699 13.667 6.5 17s9.16602 5 14.499 5c6 0 11.167 -1.66699 15.5 -5s6.5 -9 6.5 -17zM65 527
c0 -9.33301 -2.16699 -15.5 -6.5 -18.5s-9.5 -4.5 -15.5 -4.5c-5.33301 0 -10.166 1.5 -14.499 4.5s-6.5 9.16699 -6.5 18.5c0 8 2.16699 13.667 6.5 17s9.16602 5 14.499 5c6 0 11.167 -1.66699 15.5 -5s6.5 -9 6.5 -17z" />
    <glyph glyph-name="semicolon" unicode=";" horiz-adv-x="94" 
d="M70 527c0 -9.33301 -2.16699 -15.5 -6.5 -18.5s-9.5 -4.5 -15.5 -4.5c-5.33301 0 -10.166 1.5 -14.499 4.5s-6.5 9.16699 -6.5 18.5c0 8 2.16699 13.667 6.5 17s9.16602 5 14.499 5c6 0 11.167 -1.66699 15.5 -5s6.5 -9 6.5 -17zM72 285h-34l-8 -109h22z" />
    <glyph glyph-name="less" unicode="&#x3c;" 
d="M145 154h-30l-101 234l100 234h30l-99 -234l100 -234v0z" />
    <glyph glyph-name="equal" unicode="=" horiz-adv-x="184" 
d="M157 409h-129v28h129v-28v0v0zM157 348h-129v28h129v-28v0v0z" />
    <glyph glyph-name="greater" unicode="&#x3e;" 
d="M13 154l101 234l-100 234h31l99 -234l-100 -234h-31v0z" />
    <glyph glyph-name="question" unicode="?" horiz-adv-x="151" 
d="M75 393c10.667 17.333 17.833 32.168 21.5 44.501s5.5 26.833 5.5 43.5v244c0 7.33301 -2.16699 13.5 -6.5 18.5s-11.5 7.5 -21.5 7.5s-17.167 -2.5 -21.5 -7.5s-6.5 -11.167 -6.5 -18.5v-233h-30v223c0 25.333 5 42 15 50s24.333 12 43 12s33.334 -4.33301 44.001 -13
s16 -25 16 -49v-234c0 -19.333 -2.33301 -36.333 -7 -51s-12.667 -32 -24 -52c-8.66699 -14.667 -14.834 -32.334 -18.501 -53.001s-5.5 -41 -5.5 -61v-127h-29l-1 127c0 23.333 1.66699 46.5 5 69.5s10.333 42.833 21 59.5zM84.999 18.002
c0 -9.33301 -2.16699 -15.166 -6.5 -17.499s-9.5 -3.5 -15.5 -3.5c-5.33301 0 -10.166 1.16699 -14.499 3.5s-6.5 8.16602 -6.5 17.499c0 8 2.16699 13.667 6.5 17s9.16602 5 14.499 5c6 0 11.167 -1.66699 15.5 -5s6.5 -9 6.5 -17z" />
    <glyph glyph-name="at" unicode="@" horiz-adv-x="252" 
d="M138 428l0.00292969 125.999c0 18 -4 27 -12 27c-2.66699 0 -5.33398 -2 -8.00098 -6s-4 -10.667 -4 -20v-102h-24v102c0 17.333 3.66699 30 11 38s15.666 12 24.999 12s18 -5 26 -15c6.66699 -8.66699 10 -20.667 10 -36v-363c0 -12 2 -20 6 -24
c1.33301 -2 3.66602 -3.5 6.99902 -4.5s6 -1.5 8 -1.5c5.33301 0 10.166 2.83301 14.499 8.5s6.5 15.167 6.5 28.5v441c0 37.333 -8.66699 66.666 -26 87.999c-14.667 18 -32 27 -52 27c-9.33301 0 -18.5 -2.16699 -27.5 -6.5s-17.167 -11.166 -24.5 -20.499
s-13.333 -21 -18 -35s-7 -30.667 -7 -50v-477c0 -23.333 2.16699 -43.666 6.5 -60.999s9.66602 -31.833 15.999 -43.5s13.666 -20.667 21.999 -27s16.5 -10.5 24.5 -12.5c16 -4 32.333 -1.5 49 7.5s30.667 24.167 42 45.5l19 -9c-12 -22.667 -26.5 -40 -43.5 -52
s-34.5 -18 -52.5 -18c-3.33301 0 -6.5 0.166992 -9.5 0.5s-6.16699 0.833008 -9.5 1.5c-12.667 3.33301 -24.5 9.5 -35.5 18.5s-20.167 20.5 -27.5 34.5c-16.667 31.333 -25 69.666 -25 114.999v477c0 42 10 75.667 30 101c20 23.333 43.667 35 71 35s51 -12 71 -36
c20.667 -26 31 -60.333 31 -103v-441c0 -11.333 -1.33301 -20.5 -4 -27.5s-5.66699 -12.5 -9 -16.5c-9.33301 -11.333 -20.666 -17 -33.999 -17c-8 0 -15.5 2.33301 -22.5 7s-12.167 12.334 -15.5 23.001c-0.666992 1.33301 -1.16699 3.33301 -1.5 6
s-0.833008 5.66699 -1.5 9c-5.33301 -4 -11.333 -6 -18 -6c-9.33301 0 -17.333 4.33301 -24 13c-5.33301 7.33301 -8 17.333 -8 30v152c0 20.667 5 35.667 15 45c4.66699 4.66699 9.33398 7.66699 14.001 9s9.33398 2.33301 14.001 3h5zM125.003 199.999
c5.33301 0 8.83203 1.83105 10.499 5.49805s2.5 11.834 2.5 24.501v95l2 79c-3.33301 0 -6.66602 -0.166992 -9.99902 -0.5s-6 -1.83301 -8 -4.5c-5.33301 -5.33301 -8 -14.666 -8 -27.999v-152c0 -12.667 3.66699 -19 11 -19z" />
    <glyph glyph-name="A" unicode="A" horiz-adv-x="184" 
d="M143 0l-23 281h-58l-23 -281h-32l63 773h44l61 -773h-32zM87 590l-23 -278h55l-23 278l-4 71z" />
    <glyph glyph-name="B" unicode="B" horiz-adv-x="162" 
d="M138 441c0 -22 -8.33301 -37.333 -25 -46c16.667 -6 25 -21 25 -45v-301c0 -13.333 -3.16699 -24.833 -9.5 -34.5s-19.5 -14.5 -39.5 -14.5h-38h-25h-6v773h3h28h40c13.333 0 24.5 -2 33.5 -6s13.5 -15 13.5 -33v-293zM51 746l0.000976562 -337h22
c3.33301 0 7 0.333008 11 1h1c5.33301 0 10.166 2 14.499 6s6.5 10 6.5 18v295c0 7.33301 -1.66699 12 -5 14s-7.33301 3 -12 3h-28h-10zM106.001 356c0 7.33301 -1.66699 13.5 -5 18.5s-8.33301 7.5 -15 7.5h-3h-32v-353h38c4.66699 0 8.66699 1.66699 12 5s5 7.33301 5 12
v310z" />
    <glyph glyph-name="C" unicode="C" horiz-adv-x="169" 
d="M144 237l0.000976562 -177c0 -25.333 -5 -42 -15 -50s-24.333 -12 -43 -12s-33.334 4.33301 -44.001 13s-16 25 -16 49v656c0 23.333 5.5 39.333 16.5 48s25.5 13 43.5 13s32.167 -3.66699 42.5 -11s15.5 -24 15.5 -50v-173h-30v180c0 5.33301 -1 10 -3 14
c-1.33301 3.33301 -4 6.5 -8 9.5s-9.66699 4.5 -17 4.5c-10.667 0 -18 -2.83301 -22 -8.5s-6 -12.167 -6 -19.5v-674c0 -7.33301 2.16699 -13.333 6.5 -18s11.5 -7 21.5 -7s17.167 2.33301 21.5 7s6.5 10.667 6.5 18v188h30z" />
    <glyph glyph-name="D" unicode="D" horiz-adv-x="158" 
d="M91 773c13.333 0 24.5 -2 33.5 -6s13.5 -15 13.5 -33v-384v-63v-238c0 -13.333 -3.16699 -24.833 -9.5 -34.5s-19.5 -14.5 -39.5 -14.5h-38h-25h-6v773h3h28h40zM106 729c0 7.33301 -1.66699 12 -5 14s-7.33301 3 -12 3h-28h-10v-718h38c4.66699 0 8.66699 1.66699 12 5
s5 7.33301 5 12v684z" />
    <glyph glyph-name="E" unicode="E" horiz-adv-x="132" 
d="M121 747h-70v-341h69v-27h-69v-353h70v-26h-101v773h1h100v-26v0z" />
    <glyph glyph-name="F" unicode="F" horiz-adv-x="134" 
d="M120 746h-69v-340h67v-27h-67v-379h-31v773h1h99v-27v0z" />
    <glyph glyph-name="G" unicode="G" horiz-adv-x="162" 
d="M114 723c0 5.33301 -0.999023 10 -2.99902 14c-1.33301 3.33301 -4 6.5 -8 9.5s-9.66699 4.5 -17 4.5c-10.667 0 -18 -2.83301 -22 -8.5s-6 -12.167 -6 -19.5v-674c0 -7.33301 2.16699 -13.333 6.5 -18s11.5 -7 21.5 -7s17.167 2.33301 21.5 7s6.5 10.667 6.5 18v224
l-28 1v29h58v-243c0 -25.333 -5 -42 -15 -50s-24.333 -12 -43 -12s-33.334 4.33301 -44.001 13s-16 25 -16 49v656c0 23.333 5.5 39.333 16.5 48s25.5 13 43.5 13s32.167 -3.66699 42.5 -11s15.5 -24 15.5 -50v-173h-30v180z" />
    <glyph glyph-name="H" unicode="H" horiz-adv-x="171" 
d="M149 773v-773h-32v374h-60v-374h-32v773h32v-369h60v369h32v0z" />
    <glyph glyph-name="I" unicode="I" horiz-adv-x="81" 
d="M57 773v-773h-32v773h32v0z" />
    <glyph glyph-name="J" unicode="J" horiz-adv-x="162" 
d="M139 773l0.00195312 -713c0 -24 -5.33301 -40.333 -16 -49s-25.334 -13 -44.001 -13c-18 0 -32.333 4 -43 12s-16 24.667 -16 50v240h32v-251c0 -7.33301 2.16699 -13.333 6.5 -18s11.166 -7 20.499 -7c10 0 17.167 2.33301 21.5 7s6.5 10.667 6.5 18v724h32z" />
    <glyph glyph-name="K" unicode="K" horiz-adv-x="180" 
d="M135 0l-53 311l-6 -42l-20 -108v-161h-32v773h32v-450l5 44l65 406h32l-61 -384l16 -70l54 -319h-32z" />
    <glyph glyph-name="L" unicode="L" horiz-adv-x="134" 
d="M66 30h59v-30h-95v773h36v-743v0z" />
    <glyph glyph-name="M" unicode="M" horiz-adv-x="233" 
d="M204 773v-773h-32l1 613v56l-5 -56l-43 -613h-10h-10l-43 612l-5 57v-57l1 -612h-32v773h51l36 -513c0.666992 -6.66699 1 -13 1 -19v-20h2v20c0 6 0.333008 12.333 1 19l36 513h51z" />
    <glyph glyph-name="N" unicode="N" horiz-adv-x="193" 
d="M130 773h32v-773h-26l-21 154l-59 410l5 -564h-32v773h5h27h1l25 -178l48 -380l-5 558v0z" />
    <glyph glyph-name="O" unicode="O" horiz-adv-x="176" 
d="M113 723c0.666992 5.33301 0.000976562 10 -1.99902 14c-1.33301 3.33301 -4 6.5 -8 9.5s-9.66699 4.5 -17 4.5c-10.667 0 -17.834 -2.83301 -21.501 -8.5s-5.5 -12.167 -5.5 -19.5v-674c0 -7.33301 2 -13.333 6 -18s11 -7 21 -7s17 2.33301 21 7s6 10.667 6 18v674z
M86.001 777c18 0 32.502 -4.33301 43.502 -13s16.5 -24.667 16.5 -48v-656c0 -24 -5.33301 -40.333 -16 -49s-25.334 -13 -44.001 -13s-33.334 4.33301 -44.001 13s-16 25 -16 49v656c0 23.333 5.5 39.333 16.5 48s25.5 13 43.5 13z" />
    <glyph glyph-name="P" unicode="P" horiz-adv-x="156" 
d="M91 773c13.333 0 24.5 -2 33.5 -6s13.5 -15 13.5 -33v-364c0 -13.333 -3.16699 -24.833 -9.5 -34.5s-19.5 -14.5 -39.5 -14.5h-37v-321h-31v773h3h67zM106 729c0 7.33301 -1.5 12 -4.5 14s-7.16699 3 -12.5 3h-28h-9v-396h37c5.33301 0 9.5 1.66699 12.5 5
s4.5 7.33301 4.5 12v362z" />
    <glyph glyph-name="Q" unicode="Q" horiz-adv-x="178" 
d="M149 60c0 -28.667 -8.33203 -47 -24.999 -55l16 -39l-27 -12l-16 44h-8c-18.667 0 -33.334 4.33301 -44.001 13s-16 25 -16 49v656c0 23.333 5.5 39.333 16.5 48s25.5 13 43.5 13s32.5 -4.33301 43.5 -13s16.5 -24.667 16.5 -48v-656zM112.001 34
c2.66699 3.33301 4.00098 8.33301 4.00098 15v674c0.666992 5.33301 0 10 -2 14c-1.33301 3.33301 -4 6.5 -8 9.5s-9.66699 4.5 -17 4.5c-10.667 0 -17.834 -2.83301 -21.501 -8.5s-5.5 -12.167 -5.5 -19.5v-674c0 -6.66699 2 -12.5 6 -17.5s10.667 -7.5 20 -7.5l-12 35
l22 9z" />
    <glyph glyph-name="R" unicode="R" horiz-adv-x="158" 
d="M138 384c0 -22 -8.33301 -37.333 -25 -46c16.667 -6 25 -21 25 -45v-293h-32v299c0 7.33301 -1.66699 13.5 -5 18.5s-8.33301 7.5 -15 7.5h-8h-27v-325h-31v773h3h68c13.333 0 24.5 -2 33.5 -6s13.5 -15 13.5 -33v-350zM51 746l0.000976562 -394h21
c3.33301 0 6.33301 0.333008 9 1h4c5.33301 0 10.166 2 14.499 6s6.5 10 6.5 18v352c0 7.33301 -1.66699 12 -5 14s-7.33301 3 -12 3h-28h-10z" />
    <glyph glyph-name="S" unicode="S" horiz-adv-x="169" 
d="M114 723c0 5.33301 -0.999023 10 -2.99902 14c-1.33301 3.33301 -4 6.5 -8 9.5s-9.66699 4.5 -17 4.5c-10.667 0 -18 -2.83301 -22 -8.5s-6 -12.167 -6 -19.5v-235c0 -14.667 4.5 -31.334 13.5 -50.001s18.833 -37.667 29.5 -57c11.333 -20 21.333 -39.333 30 -58
s13 -36 13 -52v-211c0 -24 -5.33301 -40.333 -16 -49s-25.334 -13 -44.001 -13s-33 4 -43 12s-15 24.667 -15 50v225h30v-236c0 -7.33301 2.16699 -13.333 6.5 -18s11.5 -7 21.5 -7s17.167 2.33301 21.5 7s6.5 10.667 6.5 18v222c0 12 -4.16699 26.5 -12.5 43.5l-26.5 51.5
c-11.333 20.667 -22 41.334 -32 62.001s-15 40.667 -15 60v228c0 23.333 5.5 39.333 16.5 48s25.5 13 43.5 13s32.167 -3.66699 42.5 -11s15.5 -24 15.5 -50v-228h-30v235z" />
    <glyph glyph-name="T" unicode="T" horiz-adv-x="145" 
d="M130 773v-29h-43v-744h-31v744h-43v29h117v0z" />
    <glyph glyph-name="U" unicode="U" horiz-adv-x="176" 
d="M146 773l0.00195312 -713c0 -24 -5.33301 -40.333 -16 -49s-25.334 -13 -44.001 -13s-33.334 4.33301 -44.001 13s-16 25 -16 49v713h33v-724c0 -7.33301 2 -13.333 6 -18s11 -7 21 -7s17 2.33301 21 7s6 10.667 6 18v724h33z" />
    <glyph glyph-name="V" unicode="V" 
d="M114 773h32l-52 -773h-11h-4h-13l-53 773h32l35 -597l34 597v0z" />
    <glyph glyph-name="W" unicode="W" horiz-adv-x="211" 
d="M170 773h32l-42 -773h-10h-5h-13l-26 481l-26 -481h-11h-5h-13l-42 773h32l26 -543l28 543h19v0v0l31 -543l25 543v0z" />
    <glyph glyph-name="X" unicode="X" horiz-adv-x="165" 
d="M65 400l-49 373h33l28 -232l4 -39l4 39l29 232h32l-49 -373l52 -400h-32l-29 239l-7 58l-6 -58l-30 -239h-32z" />
    <glyph glyph-name="Y" unicode="Y" horiz-adv-x="145" 
d="M55 279l-48 494h34l28 -353l2 -39l3 39l27 353h35l-49 -494v-279h-32v279z" />
    <glyph glyph-name="Z" unicode="Z" horiz-adv-x="154" 
d="M136 30l0.000976562 -29.998h-123c0 18 1.66699 44.167 5 78.5s7.66602 73.833 12.999 118.5s11.333 92.167 18 142.5l20 150.5l19 147c6 45.333 10.333 80.666 13 105.999h-76v30h110c0 -7.33301 -0.833008 -19.5 -2.5 -36.5s-4.16699 -38 -7.5 -63l-11.5 -85.5
l-13.5 -103l-16.5 -128l-16 -127.5l-13.5 -113.5c-4 -34.667 -6.66699 -63.334 -8 -86.001h90z" />
    <glyph glyph-name="bracketleft" unicode="[" horiz-adv-x="97" 
d="M86 810v-25h-33v-796h33v-24h-63v845h63v0z" />
    <glyph glyph-name="backslash" unicode="\" horiz-adv-x="134" 
d="M98 0l-91 773h26l91 -773h-26v0z" />
    <glyph glyph-name="bracketright" unicode="]" horiz-adv-x="94" 
d="M7 810h63v-845h-63v24h33v796h-33v25v0z" />
    <glyph glyph-name="asciicircum" unicode="^" horiz-adv-x="222" 
d="M210 694v-33l-100 84l-100 -85v33l100 85l100 -84v0z" />
    <glyph glyph-name="underscore" unicode="_" horiz-adv-x="211" 
d="M194 0h-178v28h178v-28v0v0z" />
    <glyph glyph-name="grave" unicode="`" horiz-adv-x="79" 
d="M14 773h31l18 -120h-24l-25 120v0z" />
    <glyph glyph-name="a" unicode="a" horiz-adv-x="184" 
d="M143 0l-23 281h-58l-23 -281h-32l63 773h44l61 -773h-32zM87 590l-23 -278h55l-23 278l-4 71z" />
    <glyph glyph-name="b" unicode="b" horiz-adv-x="162" 
d="M138 441c0 -22 -8.33301 -37.333 -25 -46c16.667 -6 25 -21 25 -45v-301c0 -13.333 -3.16699 -24.833 -9.5 -34.5s-19.5 -14.5 -39.5 -14.5h-38h-25h-6v773h3h28h40c13.333 0 24.5 -2 33.5 -6s13.5 -15 13.5 -33v-293zM51 746l0.000976562 -337h22
c3.33301 0 7 0.333008 11 1h1c5.33301 0 10.166 2 14.499 6s6.5 10 6.5 18v295c0 7.33301 -1.66699 12 -5 14s-7.33301 3 -12 3h-28h-10zM106.001 356c0 7.33301 -1.66699 13.5 -5 18.5s-8.33301 7.5 -15 7.5h-3h-32v-353h38c4.66699 0 8.66699 1.66699 12 5s5 7.33301 5 12
v310z" />
    <glyph glyph-name="c" unicode="c" horiz-adv-x="169" 
d="M144 237l0.000976562 -177c0 -25.333 -5 -42 -15 -50s-24.333 -12 -43 -12s-33.334 4.33301 -44.001 13s-16 25 -16 49v656c0 23.333 5.5 39.333 16.5 48s25.5 13 43.5 13s32.167 -3.66699 42.5 -11s15.5 -24 15.5 -50v-173h-30v180c0 5.33301 -1 10 -3 14
c-1.33301 3.33301 -4 6.5 -8 9.5s-9.66699 4.5 -17 4.5c-10.667 0 -18 -2.83301 -22 -8.5s-6 -12.167 -6 -19.5v-674c0 -7.33301 2.16699 -13.333 6.5 -18s11.5 -7 21.5 -7s17.167 2.33301 21.5 7s6.5 10.667 6.5 18v188h30z" />
    <glyph glyph-name="d" unicode="d" horiz-adv-x="158" 
d="M91 773c13.333 0 24.5 -2 33.5 -6s13.5 -15 13.5 -33v-384v-63v-238c0 -13.333 -3.16699 -24.833 -9.5 -34.5s-19.5 -14.5 -39.5 -14.5h-38h-25h-6v773h3h28h40zM106 729c0 7.33301 -1.66699 12 -5 14s-7.33301 3 -12 3h-28h-10v-718h38c4.66699 0 8.66699 1.66699 12 5
s5 7.33301 5 12v684z" />
    <glyph glyph-name="e" unicode="e" horiz-adv-x="132" 
d="M121 747h-70v-341h69v-27h-69v-353h70v-26h-101v773h1h100v-26v0z" />
    <glyph glyph-name="f" unicode="f" horiz-adv-x="134" 
d="M120 746h-69v-340h67v-27h-67v-379h-31v773h1h99v-27v0z" />
    <glyph glyph-name="g" unicode="g" horiz-adv-x="162" 
d="M114 723c0 5.33301 -0.999023 10 -2.99902 14c-1.33301 3.33301 -4 6.5 -8 9.5s-9.66699 4.5 -17 4.5c-10.667 0 -18 -2.83301 -22 -8.5s-6 -12.167 -6 -19.5v-674c0 -7.33301 2.16699 -13.333 6.5 -18s11.5 -7 21.5 -7s17.167 2.33301 21.5 7s6.5 10.667 6.5 18v224
l-28 1v29h58v-243c0 -25.333 -5 -42 -15 -50s-24.333 -12 -43 -12s-33.334 4.33301 -44.001 13s-16 25 -16 49v656c0 23.333 5.5 39.333 16.5 48s25.5 13 43.5 13s32.167 -3.66699 42.5 -11s15.5 -24 15.5 -50v-173h-30v180z" />
    <glyph glyph-name="h" unicode="h" horiz-adv-x="171" 
d="M149 773v-773h-32v374h-60v-374h-32v773h32v-369h60v369h32v0z" />
    <glyph glyph-name="i" unicode="i" horiz-adv-x="81" 
d="M57 773v-773h-32v773h32v0z" />
    <glyph glyph-name="j" unicode="j" horiz-adv-x="162" 
d="M139 773l0.00195312 -713c0 -24 -5.33301 -40.333 -16 -49s-25.334 -13 -44.001 -13c-18 0 -32.333 4 -43 12s-16 24.667 -16 50v240h32v-251c0 -7.33301 2.16699 -13.333 6.5 -18s11.166 -7 20.499 -7c10 0 17.167 2.33301 21.5 7s6.5 10.667 6.5 18v724h32z" />
    <glyph glyph-name="k" unicode="k" horiz-adv-x="180" 
d="M135 0l-53 311l-6 -42l-20 -108v-161h-32v773h32v-450l5 44l65 406h32l-61 -384l16 -70l54 -319h-32z" />
    <glyph glyph-name="l" unicode="l" horiz-adv-x="134" 
d="M66 30h59v-30h-95v773h36v-743v0z" />
    <glyph glyph-name="m" unicode="m" horiz-adv-x="233" 
d="M204 773v-773h-32l1 613v56l-5 -56l-43 -613h-10h-10l-43 612l-5 57v-57l1 -612h-32v773h51l36 -513c0.666992 -6.66699 1 -13 1 -19v-20h2v20c0 6 0.333008 12.333 1 19l36 513h51z" />
    <glyph glyph-name="n" unicode="n" horiz-adv-x="193" 
d="M130 773h32v-773h-26l-21 154l-59 410l5 -564h-32v773h5h27h1l25 -178l48 -380l-5 558v0z" />
    <glyph glyph-name="o" unicode="o" horiz-adv-x="176" 
d="M113 723c0.666992 5.33301 0.000976562 10 -1.99902 14c-1.33301 3.33301 -4 6.5 -8 9.5s-9.66699 4.5 -17 4.5c-10.667 0 -17.834 -2.83301 -21.501 -8.5s-5.5 -12.167 -5.5 -19.5v-674c0 -7.33301 2 -13.333 6 -18s11 -7 21 -7s17 2.33301 21 7s6 10.667 6 18v674z
M86.001 777c18 0 32.502 -4.33301 43.502 -13s16.5 -24.667 16.5 -48v-656c0 -24 -5.33301 -40.333 -16 -49s-25.334 -13 -44.001 -13s-33.334 4.33301 -44.001 13s-16 25 -16 49v656c0 23.333 5.5 39.333 16.5 48s25.5 13 43.5 13z" />
    <glyph glyph-name="p" unicode="p" horiz-adv-x="156" 
d="M91 773c13.333 0 24.5 -2 33.5 -6s13.5 -15 13.5 -33v-364c0 -13.333 -3.16699 -24.833 -9.5 -34.5s-19.5 -14.5 -39.5 -14.5h-37v-321h-31v773h3h67zM106 729c0 7.33301 -1.5 12 -4.5 14s-7.16699 3 -12.5 3h-28h-9v-396h37c5.33301 0 9.5 1.66699 12.5 5
s4.5 7.33301 4.5 12v362z" />
    <glyph glyph-name="q" unicode="q" horiz-adv-x="178" 
d="M149 60c0 -28.667 -8.33203 -47 -24.999 -55l16 -39l-27 -12l-16 44h-8c-18.667 0 -33.334 4.33301 -44.001 13s-16 25 -16 49v656c0 23.333 5.5 39.333 16.5 48s25.5 13 43.5 13s32.5 -4.33301 43.5 -13s16.5 -24.667 16.5 -48v-656zM112.001 34
c2.66699 3.33301 4.00098 8.33301 4.00098 15v674c0.666992 5.33301 0 10 -2 14c-1.33301 3.33301 -4 6.5 -8 9.5s-9.66699 4.5 -17 4.5c-10.667 0 -17.834 -2.83301 -21.501 -8.5s-5.5 -12.167 -5.5 -19.5v-674c0 -6.66699 2 -12.5 6 -17.5s10.667 -7.5 20 -7.5l-12 35
l22 9z" />
    <glyph glyph-name="r" unicode="r" horiz-adv-x="158" 
d="M138 384c0 -22 -8.33301 -37.333 -25 -46c16.667 -6 25 -21 25 -45v-293h-32v299c0 7.33301 -1.66699 13.5 -5 18.5s-8.33301 7.5 -15 7.5h-8h-27v-325h-31v773h3h68c13.333 0 24.5 -2 33.5 -6s13.5 -15 13.5 -33v-350zM51 746l0.000976562 -394h21
c3.33301 0 6.33301 0.333008 9 1h4c5.33301 0 10.166 2 14.499 6s6.5 10 6.5 18v352c0 7.33301 -1.66699 12 -5 14s-7.33301 3 -12 3h-28h-10z" />
    <glyph glyph-name="s" unicode="s" horiz-adv-x="169" 
d="M114 723c0 5.33301 -0.999023 10 -2.99902 14c-1.33301 3.33301 -4 6.5 -8 9.5s-9.66699 4.5 -17 4.5c-10.667 0 -18 -2.83301 -22 -8.5s-6 -12.167 -6 -19.5v-235c0 -14.667 4.5 -31.334 13.5 -50.001s18.833 -37.667 29.5 -57c11.333 -20 21.333 -39.333 30 -58
s13 -36 13 -52v-211c0 -24 -5.33301 -40.333 -16 -49s-25.334 -13 -44.001 -13s-33 4 -43 12s-15 24.667 -15 50v225h30v-236c0 -7.33301 2.16699 -13.333 6.5 -18s11.5 -7 21.5 -7s17.167 2.33301 21.5 7s6.5 10.667 6.5 18v222c0 12 -4.16699 26.5 -12.5 43.5l-26.5 51.5
c-11.333 20.667 -22 41.334 -32 62.001s-15 40.667 -15 60v228c0 23.333 5.5 39.333 16.5 48s25.5 13 43.5 13s32.167 -3.66699 42.5 -11s15.5 -24 15.5 -50v-228h-30v235z" />
    <glyph glyph-name="t" unicode="t" horiz-adv-x="145" 
d="M130 773v-29h-43v-744h-31v744h-43v29h117v0z" />
    <glyph glyph-name="u" unicode="u" horiz-adv-x="176" 
d="M146 773l0.00195312 -713c0 -24 -5.33301 -40.333 -16 -49s-25.334 -13 -44.001 -13s-33.334 4.33301 -44.001 13s-16 25 -16 49v713h33v-724c0 -7.33301 2 -13.333 6 -18s11 -7 21 -7s17 2.33301 21 7s6 10.667 6 18v724h33z" />
    <glyph glyph-name="v" unicode="v" 
d="M114 773h32l-52 -773h-11h-4h-13l-53 773h32l35 -597l34 597v0z" />
    <glyph glyph-name="w" unicode="w" horiz-adv-x="211" 
d="M170 773h32l-42 -773h-10h-5h-13l-26 481l-26 -481h-11h-5h-13l-42 773h32l26 -543l28 543h19v0v0l31 -543l25 543v0z" />
    <glyph glyph-name="x" unicode="x" horiz-adv-x="165" 
d="M65 400l-49 373h33l28 -232l4 -39l4 39l29 232h32l-49 -373l52 -400h-32l-29 239l-7 58l-6 -58l-30 -239h-32z" />
    <glyph glyph-name="y" unicode="y" horiz-adv-x="145" 
d="M55 279l-48 494h34l28 -353l2 -39l3 39l27 353h35l-49 -494v-279h-32v279z" />
    <glyph glyph-name="z" unicode="z" horiz-adv-x="154" 
d="M136 30l0.000976562 -29.998h-123c0 18 1.66699 44.167 5 78.5s7.66602 73.833 12.999 118.5s11.333 92.167 18 142.5l20 150.5l19 147c6 45.333 10.333 80.666 13 105.999h-76v30h110c0 -7.33301 -0.833008 -19.5 -2.5 -36.5s-4.16699 -38 -7.5 -63l-11.5 -85.5
l-13.5 -103l-16.5 -128l-16 -127.5l-13.5 -113.5c-4 -34.667 -6.66699 -63.334 -8 -86.001h90z" />
    <glyph glyph-name="braceleft" unicode="{" horiz-adv-x="103" 
d="M33 459l0.000976562 289.999c0 23.333 5.16699 39.333 15.5 48s24.5 13 42.5 13h2v-20h-2c-12.667 0 -21 -2.83301 -25 -8.5s-6 -12.167 -6 -19.5v-283c0 -21.333 -2 -40.166 -6 -56.499s-11.333 -27.833 -22 -34.5c-0.666992 0 -1.33398 -0.333008 -2.00098 -1
c1.33301 0 2 -0.333008 2 -1c10.667 -6 18 -17.167 22 -33.5s6 -35.166 6 -56.499v-283c0 -7.33301 2 -13.666 6 -18.999s12.333 -8 25 -8h2v-20h-2c-18 0 -32.167 4.33301 -42.5 13s-15.5 24.667 -15.5 48v289c0 23.333 -3.5 40.833 -10.5 52.5s-13.167 18.167 -18.5 19.5
c5.33301 1.33301 11.5 7.66602 18.5 18.999s10.5 28.666 10.5 51.999z" />
    <glyph glyph-name="bar" unicode="|" horiz-adv-x="81" 
d="M52 795v-817h-24v817h24v0z" />
    <glyph glyph-name="braceright" unicode="}" horiz-adv-x="112" 
d="M68 459c0 -23.333 3.50098 -40.665 10.501 -51.998s13.167 -17.666 18.5 -18.999c-5.33301 -1.33301 -11.5 -7.83301 -18.5 -19.5s-10.5 -29.167 -10.5 -52.5v-289c0 -23.333 -5.16699 -39.333 -15.5 -48s-24.5 -13 -42.5 -13h-2v20h2c12.667 0 21 2.66699 25 8
s6 11.666 6 18.999v283c0 21.333 1.83301 40.166 5.5 56.499s11.167 27.5 22.5 33.5c0 0.666992 0.666992 1 2 1c-0.666992 0.666992 -1.33398 1 -2.00098 1c-11.333 6.66699 -18.833 18.167 -22.5 34.5s-5.5 35.166 -5.5 56.499v283c0 7.33301 -2 13.833 -6 19.5
s-12.333 8.5 -25 8.5h-2v20h2c18 0 32.167 -4.33301 42.5 -13s15.5 -24.667 15.5 -48v-290v0z" />
    <glyph glyph-name="copyright" unicode="&#xa9;" horiz-adv-x="279" 
d="M157 610l-0.00195312 -124.002h28v119c0 16.667 -4 28.667 -12 36c-4 3.33301 -8.66699 5.5 -14 6.5s-10.666 1.5 -15.999 1.5c-14.667 0 -25.334 -3.33301 -32.001 -10c-8 -7.33301 -12 -18.666 -12 -33.999v-434c0 -30 14.667 -45 44 -45
c12.667 0 22.834 2.83301 30.501 8.5s11.5 17.834 11.5 36.501v121h-28v-128c0 -3.33301 -0.833008 -6.33301 -2.5 -9s-5.5 -4 -11.5 -4s-10 1.33301 -12 4s-3 5.66699 -3 9v446c0 3.33301 1 6.5 3 9.5s6 4.5 12 4.5c3.33301 0 7 -1.33301 11 -4
c0.666992 -1.33301 1.33398 -2.5 2.00098 -3.5s1 -2.16699 1 -3.5v-3zM227.998 -3.00195h-172c-7.33301 0 -13.333 2.33301 -18 7s-7 10.667 -7 18v725c0 6.66699 2.33301 12.334 7 17.001s10.667 7 18 7h172c6.66699 0 12.334 -2.33301 17.001 -7s7 -10.334 7 -17.001v-725
c0 -7.33301 -2.33301 -13.333 -7 -18s-10.334 -7 -17.001 -7zM55.998 755.998c-6.66699 0 -10 -3 -10 -9v-725c0 -6.66699 3.33301 -10 10 -10h172c6 0 9 3.33301 9 10v725c0 6 -3 9 -9 9h-172z" />
    <glyph glyph-name="registered" unicode="&#xae;" horiz-adv-x="270" 
d="M221 261h-172c-7.33301 0 -13.333 2.33301 -18 7s-7 10.667 -7 18v461c0 6.66699 2.33301 12.334 7 17.001s10.667 7 18 7h172c6.66699 0 12.334 -2.33301 17.001 -7s7 -10.334 7 -17.001v-461c0 -7.33301 -2.33301 -13.333 -7 -18s-10.334 -7 -17.001 -7zM49 756
c-6.66699 0 -10 -3 -10 -9v-461c0 -6.66699 3.33301 -10 10 -10h172c6 0 9 3.33301 9 10v461c0 6 -3 9 -9 9h-172zM167 521l0.000976562 164c0 10 -2.33301 16 -7 18s-10.334 3 -17.001 3h-36v-368h19v153h11h3c5.33301 0 8 -3.33301 8 -10v-143h19v140
c0 10.667 -3 17.667 -9 21c6 4.66699 9 12 9 22zM126.001 689h3h13c4 0 6 -2 6 -6v-166c0 -6 -2.66699 -9 -8 -9h-2h-12v181z" />
    <glyph glyph-name="quoteleft" unicode="&#x2018;" horiz-adv-x="64" 
d="M36 653h-22l7 120h31z" />
    <glyph glyph-name="quoteright" unicode="&#x2019;" horiz-adv-x="70" 
d="M32 773h22l-7 -120h-31z" />
    <glyph glyph-name="quotedblleft" unicode="&#x201c;" horiz-adv-x="108" 
d="M94 773v-120h-29v120h29zM45 773v-120h-29v120h29z" />
    <glyph glyph-name="quotedblright" unicode="&#x201d;" horiz-adv-x="112" 
d="M102 773l-16 -120h-22l7 120h31zM52 773l-16 -120h-22l7 120h31z" />
    <glyph glyph-name="Euro" unicode="&#x20ac;" horiz-adv-x="167" 
d="M123 231h30.001v-166c0 -25.333 -5 -42 -15 -50s-24.333 -12 -43 -12s-33.334 4.33301 -44.001 13s-16 25 -16 49v279h-29l11 26h18v37h-30l11 26h19v277c0 23.333 5.5 39.333 16.5 48s25.5 13 43.5 13s32.167 -3.66699 42.5 -11s15.5 -24 15.5 -50v-173h-30v180
c0 5.33301 -1 10 -3 14c-1.33301 3.33301 -4 6.5 -8 9.5s-9.66699 4.5 -17 4.5c-10.667 0 -18 -2.83301 -22 -8.5s-6 -12.167 -6 -19.5v-284h87l-11 -26h-76v-37h76l-11 -26h-65v-290c0 -7.33301 2.16699 -13.333 6.5 -18s11.5 -7 21.5 -7s17.167 2.33301 21.5 7
s6.5 10.667 6.5 18v177z" />
    <glyph glyph-name=".null" horiz-adv-x="0" 
 />
    <glyph glyph-name="nonmarkingreturn" horiz-adv-x="500" 
 />
  </font>
</defs>
</svg>
